<svg xmlns="http://www.w3.org/2000/svg" width="16.03" height="13" viewBox="0 0 16.03 13">
  <defs>
    <style>
      .cls-1 {
        fill: #fff;
        fill-rule: evenodd;
        opacity: 0.3;
      }
    </style>
  </defs>
  <path id="twitter" class="cls-1" d="M1142.18,223.707a5.817,5.817,0,0,1-1.83.515,3.541,3.541,0,0,0,1.38-1.792,5.34,5.34,0,0,1-2.06.727h0a3.3,3.3,0,0,0-5.69,2.268,3.581,3.581,0,0,0,.08.738h0a9.124,9.124,0,0,1-6.79-3.447,3.319,3.319,0,0,0,.99,4.369,2.125,2.125,0,0,1-1.44-.378,3.187,3.187,0,0,0,2.54,3.237,2.624,2.624,0,0,1-1.38.1,3.133,3.133,0,0,0,2.95,2.251,5.874,5.874,0,0,1-4.76,1.358,9.863,9.863,0,0,0,5.15,1.476,9.175,9.175,0,0,0,9.26-9.627v-0.109A5.8,5.8,0,0,0,1142.18,223.707Z" transform="translate(-1126.16 -222.125)"/>
</svg>
