<svg xmlns="http://www.w3.org/2000/svg" width="73.999" height="43.166" viewBox="0 0 24 14">
  <defs>
    <style>
      .cls-1 {
        fill: #fff;
        fill-rule: evenodd;
        opacity: 0.3;
      }
    </style>
  </defs>
  <path class="cls-1" d="M1315.9,223.894a0.731,0.731,0,0,0-.38-0.211,1.922,1.922,0,0,0-.8-0.032l-3.61.025a1.01,1.01,0,0,0-.25.007,0.744,0.744,0,0,0-.16.038c-0.02.013-.05,0.024-0.06,0.032l-0.05.038a0.625,0.625,0,0,0-.14.134,1.167,1.167,0,0,0-.13.224,20.766,20.766,0,0,1-1.33,2.874c-0.31.528-.6,0.986-0.85,1.373a7.2,7.2,0,0,1-.65.856,5.125,5.125,0,0,1-.48.441,0.453,0.453,0,0,1-.33.141l-0.21-.052a0.884,0.884,0,0,1-.28-0.312,1.346,1.346,0,0,1-.14-0.5c-0.03-.2-0.04-0.372-0.05-0.517s0-.349.01-0.613,0.01-.443.01-0.537c0-.323.01-0.675,0.02-1.054s0.02-.679.03-0.9,0.01-.456.01-0.7a2.985,2.985,0,0,0-.04-0.581,1.966,1.966,0,0,0-.13-0.409,0.651,0.651,0,0,0-.26-0.306,1.362,1.362,0,0,0-.42-0.173,8.116,8.116,0,0,0-1.68-.166,8,8,0,0,0-2.99.307,1.608,1.608,0,0,0-.48.383c-0.15.187-.17,0.29-0.06,0.306a1.52,1.52,0,0,1,1.06.55l0.08,0.153a3.191,3.191,0,0,1,.17.588,5.191,5.191,0,0,1,.11.932,8.46,8.46,0,0,1,0,1.6c-0.04.443-.08,0.788-0.11,1.035a2.366,2.366,0,0,1-.17.6c-0.08.153-.13,0.247-0.15,0.281a0.234,0.234,0,0,1-.07.064,0.862,0.862,0,0,1-.33.064,0.8,0.8,0,0,1-.43-0.179,2.916,2.916,0,0,1-.52-0.492,6.876,6.876,0,0,1-.61-0.875c-0.22-.374-0.45-0.817-0.7-1.328l-0.2-.371q-0.18-.357-0.51-1.041t-0.57-1.322a0.886,0.886,0,0,0-.3-0.409l-0.07-.038a0.868,0.868,0,0,0-.2-0.109,1.242,1.242,0,0,0-.28-0.083l-3.43.026a0.847,0.847,0,0,0-.71.243l-0.05.076a0.369,0.369,0,0,0-.04.205,1.011,1.011,0,0,0,.07.344c0.5,1.2,1.05,2.36,1.63,3.475s1.1,2.014,1.54,2.695,0.87,1.325,1.32,1.929,0.75,0.993.9,1.163,0.26,0.3.34,0.383l0.31,0.307a7.482,7.482,0,0,0,.89.734,13.53,13.53,0,0,0,1.28.843,6.981,6.981,0,0,0,1.65.677,5.546,5.546,0,0,0,1.83.211h1.43a0.982,0.982,0,0,0,.67-0.281l0.05-.064a1.064,1.064,0,0,0,.09-0.236,1.3,1.3,0,0,0,.04-0.351,4.32,4.32,0,0,1,.09-0.99,2.544,2.544,0,0,1,.21-0.665,1.67,1.67,0,0,1,.27-0.377,1.2,1.2,0,0,1,.21-0.185,0.5,0.5,0,0,1,.1-0.044,0.785,0.785,0,0,1,.71.2,4.3,4.3,0,0,1,.76.74c0.24,0.294.52,0.624,0.86,0.99a5.721,5.721,0,0,0,.87.818l0.25,0.153a3.189,3.189,0,0,0,.65.281,1.373,1.373,0,0,0,.7.064l3.21-.051a1.392,1.392,0,0,0,.73-0.16,0.649,0.649,0,0,0,.32-0.351,1.054,1.054,0,0,0,0-.434,1.569,1.569,0,0,0-.09-0.339,0.562,0.562,0,0,0-.08-0.159,12.362,12.362,0,0,0-2.39-2.824l-0.02-.025-0.01-.013-0.02-.013h-0.01c-0.53-.519-0.87-0.868-1.01-1.047a1,1,0,0,1-.18-1.035,9.778,9.778,0,0,1,1.13-1.673q0.51-.678.81-1.086,2.16-2.938,1.88-3.756Z" transform="translate(-1292 -223)"/>
</svg>
