<svg xmlns="http://www.w3.org/2000/svg" width="24" height="29.031" viewBox="0 0 24 29.031">
  <defs>
    <style>
      .cls-1 {
        fill: #fff;
        fill-rule: evenodd;
        opacity: 0.3;
      }
    </style>
  </defs>
  <path id="youtube" class="cls-1" d="M1011.2,222.4a2.181,2.181,0,0,0,.57,1.583,2.031,2.031,0,0,0,1.52.592,2.071,2.071,0,0,0,1.56-.566,2.16,2.16,0,0,0,.58-1.569l0.01-4.026a1.938,1.938,0,0,0-.58-1.459,2,2,0,0,0-1.48-.57,2.249,2.249,0,0,0-1.58.532,1.861,1.861,0,0,0-.59,1.441Zm1.51-4.1a0.514,0.514,0,0,1,.17-0.413,0.6,0.6,0,0,1,.43-0.156,0.655,0.655,0,0,1,.46.159,0.523,0.523,0,0,1,.18.413l-0.01,4.246a0.7,0.7,0,0,1-.17.493,0.648,0.648,0,0,1-.48.178,0.555,0.555,0,0,1-.44-0.176,0.746,0.746,0,0,1-.15-0.5Zm-4.99,6.059,1.64,0,0.01-4.386,1.93-6.178-1.67,0-1.03,4.222h-0.1l-1.05-4.228-1.65,0,1.93,6.386Zm9.95,0.139a1.692,1.692,0,0,0,.85-0.246,3.22,3.22,0,0,0,.84-0.722v0.86l1.45,0,0.02-7.8-1.45,0-0.02,5.918a2.165,2.165,0,0,1-.45.418,0.783,0.783,0,0,1-.41.163,0.338,0.338,0,0,1-.29-0.125,0.693,0.693,0,0,1-.09-0.4l0.01-5.977-1.45,0-0.02,6.517a1.768,1.768,0,0,0,.25,1.045A0.891,0.891,0,0,0,1017.67,224.5Zm8.34,5.825a3.448,3.448,0,0,0-3.46-3.42c-2.73-.121-5.53-0.178-8.38-0.181s-5.64.03-8.37,0.137a3.448,3.448,0,0,0-3.48,3.4c-0.11,1.491-.17,2.982-0.17,4.473s0.04,2.982.15,4.474a3.441,3.441,0,0,0,3.46,3.42q4.1,0.182,8.37.181c2.85,0.012,5.65-.03,8.38-0.137a3.433,3.433,0,0,0,3.47-3.4c0.12-1.491.17-2.982,0.17-4.473S1026.12,231.817,1026.01,230.326Zm-18.68,9.556-1.63,0,0.02-9.035-1.7,0,0.01-1.534,5.03,0.013v1.534l-1.7,0Zm5.84,0.016-1.46,0v-0.86a2.929,2.929,0,0,1-.84.722,1.685,1.685,0,0,1-.84.246,0.879,0.879,0,0,1-.76-0.35,1.7,1.7,0,0,1-.25-1.045l0.01-6.517,1.46,0-0.02,5.977a0.693,0.693,0,0,0,.09.4,0.345,0.345,0,0,0,.3.125,0.8,0.8,0,0,0,.41-0.163,2.165,2.165,0,0,0,.45-0.418l0.01-5.918,1.46,0Zm5.61-1.6a2.028,2.028,0,0,1-.35,1.272,1.18,1.18,0,0,1-.99.438,1.649,1.649,0,0,1-.76-0.173,1.949,1.949,0,0,1-.62-0.529v0.6l-1.47,0,0.03-10.569,1.47,0-0.01,3.4a2.308,2.308,0,0,1,.62-0.541,1.414,1.414,0,0,1,.68-0.184,1.216,1.216,0,0,1,1.05.5,2.474,2.474,0,0,1,.36,1.455Zm5.39-2.086-2.79-.007v1.47a1.748,1.748,0,0,0,.14.854,0.523,0.523,0,0,0,.49.239,0.6,0.6,0,0,0,.51-0.2,1.842,1.842,0,0,0,.14-0.889l0.01-.542,1.49,0v0.586a2.584,2.584,0,0,1-.55,1.8,2.1,2.1,0,0,1-1.64.6,1.922,1.922,0,0,1-1.53-.647,2.577,2.577,0,0,1-.56-1.771l0.01-3.5a2.285,2.285,0,0,1,.62-1.653,2.109,2.109,0,0,1,1.6-.634,1.97,1.97,0,0,1,1.53.595,2.442,2.442,0,0,1,.53,1.7v1.985Zm-2.13-2.919a0.574,0.574,0,0,0-.5.211,1.247,1.247,0,0,0-.15.7l-0.01.789,1.29,0v-0.789a1.248,1.248,0,0,0-.15-0.7A0.549,0.549,0,0,0,1022.04,233.293Zm-5.35-.042a0.664,0.664,0,0,0-.31.076,1.127,1.127,0,0,0-.3.236l-0.02,4.859a1.329,1.329,0,0,0,.35.275,0.772,0.772,0,0,0,.35.085,0.449,0.449,0,0,0,.39-0.163,0.852,0.852,0,0,0,.13-0.537l0.01-4.026a1,1,0,0,0-.15-0.6A0.547,0.547,0,0,0,1016.69,233.251Z" transform="translate(-1002.16 -213.781)"/>
</svg>
