<?xml version="1.0" encoding="utf-8"?>
<!-- Generator: Adobe Illustrator 20.1.0, SVG Export Plug-In . SVG Version: 6.00 Build 0)  -->
<svg version="1.1" id="Layer_2" xmlns="http://www.w3.org/2000/svg" xmlns:xlink="http://www.w3.org/1999/xlink" x="0px" y="0px"
	 viewBox="0 0 312.2 63.5" style="enable-background:new 0 0 312.2 63.5;" xml:space="preserve">
<style type="text/css">
	.st0{display:none;fill:#FFFFFF;stroke:#FFFFFF;}
	.st1{display:none;fill:#FFFFFF;}
	.st2{fill:#090B0F;}
	.st3{fill:#FFFFFF;}
</style>
<rect x="-17.3" y="-32.2" class="st0" width="343.8" height="112.5"/>
<rect x="0.1" y="0.1" class="st1" width="73.8" height="39.2"/>
<g>
	<g>
		<rect x="76.9" y="38.3" class="st2" width="146.1" height="1.2"/>
		<path class="st2" d="M263.7,0v1.3c3.6,0.2,4.9,1.2,4.9,4.4v24.5c0,4.2-0.8,7.7-5.2,8v1.3h11.5v-1.3c-4.3,0.1-4.8-3.8-4.8-7.7V3.2
			l13.3,36.3h1.2l1.5-4.1c-3.7-9.7-11.1-28.6-13.7-35.4H263.7z M312.2,1.3V0h-8.8v39.5h8.8v-1.3h-5V1.3H312.2z M288,25.5L278.4,0h-4
			l13,33.4l10.4-30.2v35h-5.1v1.3h8.7V0h-4.2L288,25.5z M227.1,1.3h5.1v36.9h-5.1v1.3h8.8V0h-8.8V1.3z M237.7,0v39.5h8.8v-1.3h-5.1
			V18.5h4c3.8,0,6.1,2.3,6.3,7.3h1.5V10h-1.5c0,3.7-2.4,7.2-6.3,7.2h-4V1.3h5.7c4.7,0,11.3,1.7,12.7,11.3h1.6L261.1,0H237.7z"/>
		<path class="st2" d="M0,39.5h73.6V0H0V39.5z"/>
		<rect x="76.9" class="st2" width="146.1" height="1.2"/>
		<path class="st2" d="M164.3,30.4h1V14.7c0-1.9,0.3-3.9,2.4-3.8v-0.7H162v0.7c2.2,0.2,2.6,1.8,2.6,4v8l-9.8-12.6h-6.9v0.7
			c1.8,0.1,2.4,0.6,2.4,2.2v12.3c0,2.1-0.4,3.8-2.6,4v0.7h5.7v-0.7c-2.1,0.1-2.4-1.9-2.4-3.9V13.3L164.3,30.4z M212.7,29.4
			c-3,0-5.8-2.5-6.8-6.5h-0.8l0.1,7h1.1c0.4-0.7,1.1-0.7,1.6-0.7c3.3,0,1.6,1.1,5,1.1c4.7,0,7.1-3.2,7.1-6.5c0-1.9-0.8-4.4-4.4-5.8
			l-4.3-1.7c-1.4-0.6-3-1.2-3-3.5c0-1.3,1.3-2.2,3.8-2.2c1,0,4,0.4,5.6,5.1h0.7v-5.6h-1.1c-0.2,0.2-0.6,0.5-1,0.5
			c-0.2,0-0.3,0-0.5,0c-1-0.2-1.7-1-3.9-1c-4.3,0-6.3,2.9-6.3,5.7c0,3.5,2.6,5,4.2,5.6l3.6,1.4c1.7,0.7,3.7,1.4,3.7,3.8
			C217.1,27.2,216.6,29.4,212.7,29.4z M168.9,29.3v0.7h17.5l0.3-6.6h-0.8c-0.4,2.9-3.1,5.9-6.9,5.9h-2.8v-9.9h2
			c1.9,0,3.1,1.2,3.1,3.7h0.8v-7.9h-0.8c0,1.8-1.2,3.6-3.1,3.6h-2v-7.9h2.9c2.4,0,5.7,0.8,6.4,5.7h0.8l-0.2-6.3h-17v0.7h2.5v18.5
			H168.9z M196.4,29.4c-3,0-5.8-2.5-6.8-6.5h-0.8l0.1,7h1.1c0.4-0.7,1.1-0.7,1.6-0.7c3.3,0,1.6,1.1,5,1.1c4.7,0,7.1-3.2,7.1-6.5
			c0-1.9-0.8-4.4-4.4-5.8l-4.3-1.7c-1.4-0.6-3-1.2-3-3.5c0-1.3,1.3-2.2,3.8-2.2c1,0,4,0.4,5.6,5.1h0.7v-5.6H201
			c-0.2,0.2-0.6,0.5-1,0.5c-0.1,0-0.3,0-0.5,0c-1-0.2-1.7-1-3.9-1c-4.3,0-6.3,2.9-6.3,5.7c0,3.5,2.6,5,4.2,5.6l3.6,1.4
			c1.7,0.7,3.7,1.4,3.7,3.8C200.8,27.2,200.3,29.4,196.4,29.4z M81.4,29.3v0.7h10.5c2.4,0,8.3-0.2,8.3-5.3c0-2.3-1.6-4.6-7-5.6
			l0-0.2c2.2-0.3,6.4-1.3,6.4-4.6c0-3.7-4.7-4.2-8.5-4.2h-9.6v0.7h2.5v18.5H81.4z M88.6,10.8h2.1c1.2,0,3.6,0.1,3.6,2.8v2
			c0,2.2-1.8,3-3.6,3h-2.1V10.8z M88.6,19.2h2.3c3.7,0,4,2.6,4,4.1v2.1c0,3-1.5,3.8-4.4,3.8h-1.9V19.2z M146.6,10.8v-0.7h-9.7v0.7
			h2.5v18.5h-2.5v0.7h9.7v-0.7H144V10.8H146.6z M128.4,29.4c-3,0-5.8-2.5-6.8-6.5h-0.8l0.1,7h1.1c0.4-0.7,1.1-0.7,1.6-0.7
			c3.3,0,1.6,1.1,5,1.1c4.7,0,7.1-3.2,7.1-6.5c0-1.9-0.8-4.4-4.3-5.8l-4.3-1.7c-1.4-0.6-3-1.2-3-3.5c0-1.3,1.3-2.2,3.8-2.2
			c1,0,4,0.4,5.6,5.1h0.7v-5.6H133c-0.2,0.2-0.6,0.5-1,0.5c-0.1,0-0.3,0-0.5,0c-1-0.2-1.7-1-3.9-1c-4.4,0-6.3,2.9-6.3,5.7
			c0,3.5,2.6,5,4.2,5.6l3.6,1.4c1.7,0.7,3.7,1.4,3.7,3.8C132.9,27.2,132.3,29.4,128.4,29.4z M111,30.4c1.4,0,7-0.3,7-6.5v-9.9
			c0-1.1,0.3-3.2,2.4-3.1v-0.7h-5.7v0.7c2.2,0.1,2.6,1.9,2.6,4v8.8c0,1.5-0.2,5.7-5.1,5.7c-3.7,0-4.2-2.2-4.2-3.5V10.8h2.5v-0.7
			h-9.7v0.7h2.5v12.6C103.2,26.1,103.6,30.4,111,30.4z"/>
		<path class="st3" d="M24,7.2c-2.3,0-4.2,1.2-5.7,3.5c-1.6,2.3-2.4,5.2-2.4,8.4c0,3.3,0.8,6.1,2.4,8.5c1.6,2.4,3.5,3.5,5.6,3.5
			c1.3,0,2.6-0.5,3.9-1.6c1.3-1,2.3-2.6,3.1-4.6c0.7-2.1,1.1-3.9,1.1-5.7c0-3.5-0.8-6.4-2.3-8.7C28.1,8.4,26.2,7.2,24,7.2z
			 M26.2,21.1c-0.1,4.4-0.3,7-0.7,7.8c-0.4,0.8-0.9,1.2-1.6,1.2c-0.5,0-0.9-0.2-1.1-0.5c-0.3-0.3-0.5-1.1-0.7-2.5
			c-0.2-1.4-0.3-3.7-0.3-7.1c0-4.4,0.1-7.4,0.4-9.1C22.4,9.2,23,8.4,24,8.4c0.8,0,1.4,0.6,1.7,1.9c0.4,1.3,0.5,3.2,0.5,5.9
			L26.2,21.1z M49,7.7H35l-1.3,7.7h1.1l0.7-2.1c0.2-0.5,0.3-0.8,0.5-1c0.2-0.1,0.5-0.2,1.1-0.2h8.6c-2.9,5.8-5.2,7.4-7.4,11.6
			c-1.8,3.3-1.8,6.4-1.7,7.6h6.8C41.9,19.7,47.5,11.7,49,7.7z M11.7,7.4H11L8.8,7.6C7,7.8,5.6,7.9,4.4,7.9H3V9h3.3v20.8H3v1h12.1v-1
			h-3.4V7.4z M51.4,25.5c-0.8,0-1.5,0.3-2.1,0.9c-0.6,0.6-0.8,1.3-0.8,2.1c0,0.8,0.2,1.4,0.7,1.9c0.5,0.5,1,0.8,1.7,0.8
			c0.8,0,1.4-0.3,1.8-0.8c0.2-0.3,0.4-0.5,0.6-0.5c0.3,0,0.5,0.3,0.5,1c0,1.9-1.3,3.7-3.8,5.4l0.6,0.9c3.2-1.9,4.8-4.2,4.8-7.1
			c0-1.4-0.4-2.5-1.2-3.4C53.4,25.9,52.5,25.5,51.4,25.5z M69.1,21.5V7.2h-2.5L56.4,21.7v2.9H64v5.3h-2.7v1h10.1v-1h-2.3v-5.3h2.3
			v-2.1v-0.8v-0.2H69.1z M64,21.5h-6.3l6.3-8.9L64,21.5z"/>
	</g>
	<g>
		<path class="st2" d="M90.1,46.7l-0.9,4h-0.3l0-1c0-0.4-0.1-0.7-0.2-1c-0.1-0.3-0.3-0.5-0.5-0.7c-0.2-0.2-0.5-0.4-0.8-0.5
			c-0.3-0.1-0.7-0.2-1.1-0.2c-1.1,0-2.1,0.3-2.9,0.9c-1,0.8-1.9,1.8-2.5,3.2c-0.5,1.2-0.7,2.3-0.7,3.5c0,1.2,0.4,2.2,1.1,2.9
			c0.7,0.7,1.6,1.1,2.7,1.1c0.9,0,1.6-0.2,2.3-0.6c0.7-0.4,1.3-1,1.9-1.8h0.4c-0.7,1.1-1.4,1.9-2.2,2.4c-0.8,0.5-1.8,0.8-2.9,0.8
			c-1,0-1.9-0.2-2.7-0.6c-0.8-0.4-1.4-1-1.8-1.8c-0.4-0.8-0.6-1.6-0.6-2.5c0-1.4,0.4-2.7,1.1-4c0.7-1.3,1.7-2.3,3-3
			c1.3-0.7,2.6-1.1,3.8-1.1c0.6,0,1.3,0.1,2,0.4c0.3,0.1,0.6,0.2,0.7,0.2c0.1,0,0.3,0,0.4-0.1c0.1-0.1,0.3-0.2,0.6-0.5H90.1z"/>
		<path class="st2" d="M98.4,51.2l-1.8,6.2l-0.2,0.8c0,0.1,0,0.1,0,0.2c0,0.1,0,0.2,0.1,0.3c0,0.1,0.1,0.1,0.2,0.1
			c0.1,0,0.2,0,0.3-0.1c0.2-0.2,0.6-0.5,1-1.1l0.3,0.2c-0.4,0.6-0.9,1.1-1.3,1.5c-0.4,0.3-0.9,0.5-1.2,0.5c-0.3,0-0.5-0.1-0.6-0.2
			c-0.1-0.1-0.2-0.3-0.2-0.6c0-0.3,0.1-0.7,0.2-1.2l0.2-0.7c-0.8,1-1.5,1.8-2.2,2.2c-0.5,0.3-1,0.4-1.4,0.4c-0.4,0-0.8-0.2-1.2-0.6
			c-0.3-0.4-0.5-0.9-0.5-1.5c0-1,0.3-2,0.9-3.1c0.6-1.1,1.3-1.9,2.2-2.6c0.7-0.5,1.4-0.8,2-0.8c0.4,0,0.7,0.1,0.9,0.3
			c0.2,0.2,0.4,0.5,0.6,1l0.3-1L98.4,51.2z M95.1,51.6c-0.4,0-0.8,0.2-1.2,0.6c-0.6,0.5-1.2,1.3-1.7,2.3c-0.5,1-0.7,1.9-0.7,2.8
			c0,0.4,0.1,0.7,0.3,1c0.2,0.2,0.4,0.4,0.7,0.4c0.7,0,1.4-0.5,2.2-1.5c1-1.3,1.6-2.7,1.6-4c0-0.5-0.1-0.9-0.3-1.1
			C95.7,51.8,95.4,51.6,95.1,51.6z"/>
		<path class="st2" d="M99.9,51.7l2.8-0.6h0.3L102,55h3.2l1-3.6h1.4l-1.8,6.3c-0.1,0.3-0.1,0.6-0.1,0.7c0,0.2,0.1,0.2,0.2,0.2
			c0.3,0,0.7-0.4,1.4-1.2l0.3,0.2c-1,1.4-1.8,2.1-2.6,2.1c-0.5,0-0.7-0.3-0.7-0.9c0-0.3,0.1-0.8,0.3-1.6l0.5-1.7h-3.2l-1.2,4h-1.4
			l1.8-6.1c0.1-0.5,0.2-0.8,0.2-0.9c0-0.3-0.2-0.5-0.6-0.5c-0.1,0-0.3,0-0.7,0.1V51.7z"/>
		<path class="st2" d="M109.2,51.7l2.8-0.6h0.4l-1.2,4c0.2,0,0.4,0,0.4,0c1,0,1.8-0.6,2.3-1.9c0.3-0.7,0.5-1.2,0.7-1.4
			c0.1-0.2,0.3-0.4,0.5-0.5c0.2-0.1,0.5-0.2,0.7-0.2c0.3,0,0.6,0.1,0.8,0.3c0.2,0.2,0.3,0.5,0.3,0.7c0,0.2-0.1,0.4-0.2,0.6
			c-0.2,0.2-0.3,0.3-0.6,0.3c-0.3,0-0.5-0.1-0.7-0.5c-0.1-0.2-0.3-0.3-0.4-0.3c-0.2,0-0.4,0.3-0.6,0.8c-0.5,1.2-1.1,1.9-1.7,2.2
			c0.3,0.1,0.5,0.3,0.7,0.6c0.2,0.3,0.6,1,1.2,2.1c0.3,0.5,0.5,0.8,0.7,0.9c0.2,0.1,0.5,0.2,0.8,0.2l-0.1,0.3H114
			c-0.5-1.2-1-2-1.4-2.7c-0.4-0.6-0.6-1-0.8-1.1c-0.2-0.1-0.4-0.1-0.7-0.1l-1.1,3.9h-1.4l1.8-6.2c0.1-0.4,0.2-0.7,0.2-0.8
			c0-0.3-0.2-0.5-0.7-0.5c-0.1,0-0.4,0-0.7,0.1V51.7z"/>
		<path class="st2" d="M120.9,51.2l-1.2,4.1c0.5-1,1-1.7,1.4-2.2c0.6-0.8,1.1-1.3,1.7-1.7c0.3-0.2,0.7-0.3,1-0.3
			c0.3,0,0.6,0.1,0.8,0.3c0.2,0.2,0.3,0.4,0.3,0.8c0,0.3-0.1,0.7-0.2,1.2l-0.7,2.3c1-1.9,1.9-3.2,2.8-3.9c0.5-0.4,1-0.6,1.5-0.6
			c0.3,0,0.5,0.1,0.7,0.3c0.2,0.2,0.3,0.5,0.3,0.9c0,0.4-0.1,0.7-0.2,1.1l-1,3.6c-0.2,0.8-0.3,1.2-0.3,1.3c0,0.1,0,0.2,0.1,0.2
			c0,0,0.1,0.1,0.1,0.1c0.1,0,0.2-0.1,0.3-0.2c0.3-0.3,0.7-0.6,1-1.1l0.3,0.2c-0.2,0.2-0.4,0.6-0.8,1c-0.4,0.4-0.7,0.7-1,0.9
			c-0.3,0.2-0.5,0.2-0.8,0.2c-0.2,0-0.4-0.1-0.5-0.2c-0.1-0.1-0.2-0.3-0.2-0.5c0-0.3,0.1-0.9,0.4-1.8l0.8-2.9
			c0.2-0.7,0.3-1.1,0.3-1.1c0-0.1,0-0.2,0-0.3c0-0.2,0-0.3-0.1-0.4c-0.1-0.1-0.2-0.1-0.2-0.1c-0.3,0-0.5,0.1-0.8,0.4
			c-0.8,0.8-1.6,1.9-2.4,3.3c-0.5,0.9-0.9,2.1-1.4,3.6h-1.4l1.6-5.6c0.2-0.6,0.3-1,0.3-1.2c0-0.2,0-0.3-0.1-0.4
			c-0.1-0.1-0.1-0.1-0.2-0.1c-0.2,0-0.4,0.1-0.6,0.2c-0.4,0.2-0.8,0.7-1.4,1.5c-0.6,0.8-1,1.5-1.3,2.2c-0.2,0.3-0.5,1.4-1.1,3.2
			h-1.4l1.7-5.9l0.2-0.8c0-0.1,0.1-0.2,0.1-0.3c0-0.1-0.1-0.3-0.2-0.4c-0.1-0.1-0.3-0.2-0.5-0.2c-0.1,0-0.3,0-0.7,0.1l-0.1-0.3
			L120.9,51.2z"/>
		<path class="st2" d="M136,54.8l-0.4,1.2h-4.8l0.4-1.2H136z"/>
		<path class="st2" d="M139.4,47h12.4l-0.1,0.3c-0.5,0-0.9,0.1-1.2,0.3c-0.3,0.2-0.6,0.8-0.9,1.9l-2.1,7.2c-0.2,0.8-0.4,1.4-0.4,1.6
			c0,0.3,0.1,0.5,0.3,0.6c0.2,0.1,0.5,0.2,1.1,0.2l-0.1,0.3h-4.8l0.1-0.3c0.6,0,1.1-0.1,1.3-0.4c0.3-0.3,0.5-0.9,0.8-1.8l2.7-9.3
			h-5.7l-2.7,9.2c-0.2,0.7-0.3,1.2-0.3,1.5c0,0.6,0.5,0.8,1.4,0.8l-0.1,0.3h-5l0.1-0.3c0.5,0,0.8,0,1-0.1c0.2-0.1,0.4-0.2,0.6-0.5
			c0.2-0.2,0.3-0.6,0.5-1.1l2.4-8.1c0.1-0.5,0.2-0.8,0.2-1c0-0.4-0.1-0.6-0.4-0.8c-0.2-0.1-0.6-0.2-1.2-0.2L139.4,47z"/>
		<path class="st2" d="M152.5,56c0,0.3-0.1,0.6-0.1,0.8c0,0.5,0.2,1,0.6,1.4c0.4,0.4,0.9,0.6,1.4,0.6c0.4,0,0.9-0.1,1.3-0.3
			c0.4-0.2,1-0.6,1.8-1.2l0.2,0.3c-1.5,1.4-2.8,2.2-4.2,2.2c-0.9,0-1.6-0.3-2-0.8c-0.5-0.6-0.7-1.2-0.7-1.9c0-0.9,0.3-1.8,0.8-2.8
			c0.6-1,1.3-1.7,2.1-2.2c0.9-0.5,1.7-0.8,2.6-0.8c0.6,0,1.1,0.1,1.4,0.4c0.3,0.3,0.5,0.6,0.5,0.9c0,0.5-0.2,1-0.6,1.5
			c-0.5,0.6-1.3,1.1-2.4,1.5C154.7,55.7,153.7,55.9,152.5,56z M152.5,55.6c0.9-0.1,1.6-0.3,2.2-0.5c0.8-0.3,1.3-0.7,1.7-1.2
			c0.4-0.5,0.6-0.9,0.6-1.3c0-0.3-0.1-0.5-0.2-0.6c-0.2-0.2-0.4-0.2-0.7-0.2c-0.6,0-1.3,0.3-2,1C153.4,53.3,152.9,54.3,152.5,55.6z"
			/>
		<path class="st2" d="M162.4,51.2l-1.2,4.1c0.5-1,1-1.7,1.4-2.2c0.6-0.8,1.1-1.3,1.7-1.7c0.3-0.2,0.7-0.3,1-0.3
			c0.3,0,0.6,0.1,0.8,0.3c0.2,0.2,0.3,0.4,0.3,0.8c0,0.3-0.1,0.7-0.2,1.2l-0.7,2.3c1-1.9,1.9-3.2,2.8-3.9c0.5-0.4,1-0.6,1.5-0.6
			c0.3,0,0.5,0.1,0.7,0.3c0.2,0.2,0.3,0.5,0.3,0.9c0,0.4-0.1,0.7-0.2,1.1l-1,3.6c-0.2,0.8-0.3,1.2-0.3,1.3c0,0.1,0,0.2,0.1,0.2
			c0,0,0.1,0.1,0.1,0.1c0.1,0,0.2-0.1,0.3-0.2c0.3-0.3,0.7-0.6,1-1.1l0.3,0.2c-0.2,0.2-0.4,0.6-0.8,1c-0.4,0.4-0.7,0.7-1,0.9
			c-0.3,0.2-0.5,0.2-0.8,0.2c-0.2,0-0.4-0.1-0.5-0.2c-0.1-0.1-0.2-0.3-0.2-0.5c0-0.3,0.1-0.9,0.4-1.8l0.8-2.9
			c0.2-0.7,0.3-1.1,0.3-1.1c0-0.1,0-0.2,0-0.3c0-0.2,0-0.3-0.1-0.4c-0.1-0.1-0.2-0.1-0.2-0.1c-0.3,0-0.5,0.1-0.8,0.4
			c-0.8,0.8-1.6,1.9-2.4,3.3c-0.5,0.9-0.9,2.1-1.4,3.6H163l1.6-5.6c0.2-0.6,0.3-1,0.3-1.2c0-0.2,0-0.3-0.1-0.4
			c-0.1-0.1-0.1-0.1-0.2-0.1c-0.2,0-0.4,0.1-0.6,0.2c-0.4,0.2-0.8,0.7-1.4,1.5c-0.6,0.8-1,1.5-1.3,2.2c-0.2,0.3-0.5,1.4-1.1,3.2
			h-1.4l1.7-5.9l0.2-0.8c0-0.1,0.1-0.2,0.1-0.3c0-0.1-0.1-0.3-0.2-0.4c-0.1-0.1-0.3-0.2-0.5-0.2c-0.1,0-0.3,0-0.7,0.1l-0.1-0.3
			L162.4,51.2z"/>
		<path class="st2" d="M174.1,56c0,0.3-0.1,0.6-0.1,0.8c0,0.5,0.2,1,0.6,1.4c0.4,0.4,0.9,0.6,1.4,0.6c0.4,0,0.9-0.1,1.3-0.3
			c0.4-0.2,1-0.6,1.8-1.2l0.2,0.3c-1.5,1.4-2.8,2.2-4.2,2.2c-0.9,0-1.6-0.3-2-0.8c-0.5-0.6-0.7-1.2-0.7-1.9c0-0.9,0.3-1.8,0.8-2.8
			c0.6-1,1.3-1.7,2.1-2.2c0.9-0.5,1.7-0.8,2.6-0.8c0.6,0,1.1,0.1,1.4,0.4c0.3,0.3,0.5,0.6,0.5,0.9c0,0.5-0.2,1-0.6,1.5
			c-0.5,0.6-1.3,1.1-2.4,1.5C176.4,55.7,175.4,55.9,174.1,56z M174.2,55.6c0.9-0.1,1.6-0.3,2.2-0.5c0.8-0.3,1.3-0.7,1.7-1.2
			c0.4-0.5,0.6-0.9,0.6-1.3c0-0.3-0.1-0.5-0.2-0.6c-0.2-0.2-0.4-0.2-0.7-0.2c-0.6,0-1.3,0.3-2,1C175.1,53.3,174.5,54.3,174.2,55.6z"
			/>
		<path class="st2" d="M184.4,51.2l-0.6,2.1c0.7-0.8,1.3-1.3,1.8-1.6c0.5-0.3,1.1-0.5,1.6-0.5c0.5,0,1,0.2,1.4,0.6
			c0.4,0.4,0.6,1,0.6,1.7c0,1.3-0.5,2.7-1.6,4.1c-1.1,1.4-2.4,2.1-3.8,2.1c-0.3,0-0.6,0-0.8-0.1c-0.2-0.1-0.5-0.2-0.8-0.4l-0.7,2.4
			c-0.1,0.5-0.2,0.8-0.2,0.9c0,0.1,0,0.2,0.1,0.3c0.1,0.1,0.2,0.2,0.3,0.2c0.2,0.1,0.5,0.1,0.9,0.1l-0.1,0.3h-4.3l0.1-0.3
			c0.6,0,1-0.1,1.2-0.3c0.2-0.2,0.4-0.6,0.6-1.4l2.3-8c0.1-0.5,0.2-0.8,0.2-0.9c0-0.2,0-0.3-0.1-0.4c-0.1-0.1-0.2-0.1-0.4-0.1
			c-0.2,0-0.4,0-0.7,0.1v-0.4L184.4,51.2z M182.3,58.5c0.4,0.5,0.9,0.7,1.5,0.7c0.3,0,0.6-0.1,1-0.3c0.3-0.2,0.7-0.4,1-0.8
			c0.3-0.3,0.6-0.8,0.8-1.2c0.3-0.5,0.5-1,0.7-1.6c0.2-0.6,0.3-1.2,0.3-1.8c0-0.5-0.1-0.9-0.3-1.1c-0.2-0.3-0.5-0.4-0.8-0.4
			c-0.7,0-1.3,0.4-2,1.1c-0.6,0.8-1.1,1.6-1.4,2.7L182.3,58.5z"/>
		<path class="st2" d="M199,46.4h0.4c-0.1,0.5-0.3,0.9-0.6,1.2c-0.3,0.3-0.6,0.6-0.9,0.7c-0.3,0.1-0.9,0.2-1.6,0.2
			c-0.7,0.1-1.3,0.1-1.7,0.3c-0.4,0.1-0.7,0.3-1.1,0.7c-0.4,0.3-0.7,0.9-1.1,1.6c-0.4,0.7-0.7,1.6-1.1,2.7c1.3-1.7,2.7-2.5,4.4-2.5
			c0.8,0,1.4,0.3,2,0.8c0.5,0.5,0.8,1.2,0.8,2.2c0,1.5-0.5,2.8-1.6,3.9c-1.1,1.1-2.3,1.7-3.7,1.7c-0.9,0-1.6-0.3-2.1-0.9
			c-0.5-0.6-0.7-1.3-0.7-2.2c0-1.2,0.3-2.6,0.9-4.2c0.6-1.6,1.2-2.7,1.9-3.5c0.7-0.8,1.3-1.3,1.9-1.5c0.6-0.2,1.5-0.4,2.6-0.4
			c0.5,0,0.9-0.1,1.1-0.2C198.8,46.8,198.9,46.7,199,46.4z M195.6,51.6c-1,0-1.9,0.6-2.7,1.9c-0.8,1.3-1.2,2.6-1.2,3.9
			c0,0.7,0.2,1.1,0.5,1.4c0.3,0.3,0.7,0.5,1.1,0.5c1,0,1.8-0.7,2.5-2.1c0.7-1.4,1-2.7,1-4.1c0-0.5-0.1-0.9-0.4-1.2
			C196.3,51.7,196,51.6,195.6,51.6z"/>
		<path class="st2" d="M201.9,51.2c0.2,0.4,0.4,0.7,0.4,1c0.1,0.3,0.2,0.9,0.2,1.8l0.4,4.5c0.4-0.4,0.9-1.1,1.6-2.1
			c0.3-0.5,0.8-1.1,1.2-1.9c0.3-0.5,0.5-0.8,0.6-1c0-0.1,0.1-0.2,0.1-0.3c0-0.1,0-0.1-0.1-0.2c0,0-0.2-0.1-0.3-0.2
			c-0.2-0.1-0.3-0.2-0.5-0.3c-0.1-0.2-0.2-0.3-0.2-0.5c0-0.3,0.1-0.5,0.2-0.6c0.1-0.2,0.3-0.2,0.6-0.2c0.3,0,0.5,0.1,0.7,0.3
			c0.2,0.2,0.3,0.5,0.3,0.9c0,0.5-0.2,1-0.5,1.7c-0.3,0.6-1,1.6-1.9,2.9c-0.9,1.3-2.1,2.7-3.4,4.2c-0.9,1-1.6,1.7-2.1,2
			c-0.4,0.3-0.8,0.4-1.1,0.4c-0.2,0-0.4-0.1-0.5-0.2c-0.1-0.1-0.2-0.3-0.2-0.5c0-0.2,0.1-0.5,0.3-0.7c0.2-0.2,0.4-0.3,0.6-0.3
			c0.1,0,0.2,0,0.3,0.1c0,0,0.1,0.1,0.2,0.3c0.1,0.1,0.1,0.2,0.2,0.3c0,0,0.1,0,0.1,0c0,0,0.1,0,0.2-0.1c0.3-0.2,0.7-0.5,1.2-1
			c0.6-0.6,1-1.1,1.3-1.5l-0.5-5.8c-0.1-1-0.2-1.5-0.4-1.8c-0.2-0.2-0.5-0.3-0.9-0.3c-0.1,0-0.4,0-0.7,0.1l-0.1-0.3L201.9,51.2z"/>
		<path class="st2" d="M211.1,51.2l-0.6,2.1c0.7-0.8,1.3-1.3,1.8-1.6c0.5-0.3,1.1-0.5,1.6-0.5c0.5,0,1,0.2,1.4,0.6
			c0.4,0.4,0.6,1,0.6,1.7c0,1.3-0.5,2.7-1.6,4.1c-1.1,1.4-2.4,2.1-3.8,2.1c-0.3,0-0.6,0-0.8-0.1c-0.2-0.1-0.5-0.2-0.8-0.4l-0.7,2.4
			c-0.1,0.5-0.2,0.8-0.2,0.9c0,0.1,0,0.2,0.1,0.3c0.1,0.1,0.2,0.2,0.3,0.2c0.2,0.1,0.5,0.1,0.9,0.1l-0.1,0.3h-4.3l0.1-0.3
			c0.6,0,1-0.1,1.2-0.3c0.2-0.2,0.4-0.6,0.6-1.4l2.3-8c0.1-0.5,0.2-0.8,0.2-0.9c0-0.2,0-0.3-0.1-0.4c-0.1-0.1-0.2-0.1-0.4-0.1
			c-0.2,0-0.4,0-0.7,0.1v-0.4L211.1,51.2z M209,58.5c0.4,0.5,0.9,0.7,1.5,0.7c0.3,0,0.6-0.1,1-0.3c0.3-0.2,0.7-0.4,1-0.8
			c0.3-0.3,0.6-0.8,0.8-1.2c0.3-0.5,0.5-1,0.7-1.6c0.2-0.6,0.3-1.2,0.3-1.8c0-0.5-0.1-0.9-0.3-1.1c-0.2-0.3-0.5-0.4-0.8-0.4
			c-0.7,0-1.3,0.4-2,1.1c-0.6,0.8-1.1,1.6-1.4,2.7L209,58.5z"/>
		<path class="st2" d="M218.2,52.7l-0.3-0.2c1-0.9,2.1-1.3,3.2-1.3c0.8,0,1.4,0.2,1.8,0.5c0.4,0.3,0.6,0.7,0.6,1.2
			c0,0.4-0.1,0.7-0.4,1c-0.3,0.3-1,0.8-2.4,1.4c-1.3,0.6-2.1,1-2.4,1.4c-0.3,0.4-0.5,0.8-0.5,1.1c0,0.4,0.1,0.7,0.4,0.9
			c0.3,0.3,0.7,0.4,1.3,0.4c0.8,0,1.8-0.4,2.8-1.2l0.2,0.2c-1.1,1-2.3,1.6-3.8,1.6c-0.8,0-1.4-0.2-1.9-0.5c-0.4-0.3-0.6-0.7-0.6-1.2
			c0-0.5,0.2-0.9,0.5-1.3c0.3-0.4,1.2-0.9,2.6-1.4c1.1-0.4,1.8-0.8,2.2-1.2c0.3-0.4,0.5-0.8,0.5-1.2c0-0.4-0.1-0.6-0.4-0.8
			s-0.6-0.3-1.1-0.3C219.8,51.8,219,52.1,218.2,52.7z"/>
	</g>
</g>
</svg>
